<svg width="22" height="24" viewBox="0 0 22 24" fill="none" xmlns="http://www.w3.org/2000/svg">
<path d="M21.5519 13.21L19.7999 6.91604C19.2348 4.88799 18.0081 3.10697 16.3148 1.85593C14.6215 0.604898 12.5586 -0.0443874 10.454 0.0112324C8.34946 0.0668523 6.32381 0.824187 4.69894 2.16291C3.07407 3.50164 1.94317 5.34497 1.48592 7.40004L0.131922 13.489C-0.0467051 14.2929 -0.0425284 15.1267 0.144143 15.9288C0.330815 16.7308 0.695217 17.4808 1.21045 18.1232C1.72569 18.7656 2.37861 19.2841 3.12103 19.6405C3.86345 19.9968 4.67641 20.1819 5.49992 20.182H5.89992C6.21815 21.2826 6.88536 22.2499 7.80105 22.9383C8.71674 23.6267 9.83132 23.9989 10.9769 23.9989C12.1225 23.9989 13.2371 23.6267 14.1528 22.9383C15.0685 22.2499 15.7357 21.2826 16.0539 20.182H16.2469C17.0949 20.1821 17.9313 19.9862 18.691 19.6095C19.4506 19.2328 20.1129 18.6855 20.6261 18.0105C21.1392 17.3355 21.4893 16.5509 21.6491 15.7182C21.8088 14.8854 21.7739 14.027 21.5469 13.21H21.5519ZM18.2429 16.194C18.0108 16.5023 17.7099 16.7521 17.3643 16.9236C17.0187 17.0951 16.6378 17.1836 16.2519 17.182H5.49992C5.12563 17.182 4.75613 17.0978 4.41869 16.9359C4.08125 16.7739 3.78449 16.5383 3.55029 16.2463C3.3161 15.9543 3.15045 15.6135 3.06558 15.2489C2.98071 14.8844 2.97878 14.5054 3.05992 14.14L4.41392 8.04004C4.72484 6.63611 5.49647 5.37654 6.60597 4.46183C7.71547 3.54712 9.09907 3.02985 10.5365 2.99236C11.974 2.95487 13.3827 3.39932 14.5383 4.25495C15.694 5.11059 16.5302 6.32823 16.9139 7.71404L18.6619 14.008C18.7674 14.3798 18.7844 14.7712 18.7117 15.1507C18.6389 15.5303 18.4784 15.8876 18.2429 16.194Z" fill="#FBFFE4"/>
</svg>
