<svg width="24" height="24" viewBox="0 0 24 24" fill="none" xmlns="http://www.w3.org/2000/svg">
<g clip-path="url(#clip0_144_1066)">
<path d="M22.5 21H5.5C4.83696 21 4.20107 20.7366 3.73223 20.2678C3.26339 19.7989 3 19.163 3 18.5V1.5C3 1.10218 2.84196 0.720644 2.56066 0.43934C2.27936 0.158035 1.89782 0 1.5 0C1.10218 0 0.720644 0.158035 0.43934 0.43934C0.158035 0.720644 0 1.10218 0 1.5L0 18.5C0.00158817 19.9582 0.581561 21.3562 1.61267 22.3873C2.64377 23.4184 4.0418 23.9984 5.5 24H22.5C22.8978 24 23.2794 23.842 23.5607 23.5607C23.842 23.2794 24 22.8978 24 22.5C24 22.1022 23.842 21.7206 23.5607 21.4393C23.2794 21.158 22.8978 21 22.5 21Z" fill="#FBFFE4"/>
<path d="M22.4997 3.97607H19.4137C19.216 3.97612 19.0227 4.03479 18.8582 4.14467C18.6938 4.25456 18.5657 4.41072 18.49 4.59342C18.4144 4.77612 18.3946 4.97715 18.4331 5.17111C18.4717 5.36506 18.5669 5.54322 18.7067 5.68307L19.4397 6.41507L15.8527 10.0001C15.8063 10.0466 15.7511 10.0836 15.6903 10.1088C15.6296 10.134 15.5645 10.147 15.4987 10.147C15.4329 10.147 15.3678 10.134 15.3071 10.1088C15.2463 10.0836 15.1912 10.0466 15.1447 10.0001L14.9747 9.83007C14.3081 9.19324 13.4216 8.83788 12.4997 8.83788C11.5778 8.83788 10.6913 9.19324 10.0247 9.83007L5.92473 13.9301C5.78146 14.0684 5.66719 14.234 5.58858 14.417C5.50996 14.6 5.46858 14.7968 5.46685 14.996C5.46512 15.1951 5.50307 15.3927 5.5785 15.577C5.65392 15.7614 5.7653 15.9288 5.90614 16.0697C6.04697 16.2105 6.21445 16.3219 6.3988 16.3973C6.58314 16.4727 6.78066 16.5107 6.97983 16.509C7.179 16.5072 7.37583 16.4658 7.55883 16.3872C7.74184 16.3086 7.90735 16.1943 8.04572 16.0511L12.1457 11.9511C12.1922 11.9045 12.2473 11.8676 12.3081 11.8424C12.3688 11.8172 12.434 11.8042 12.4997 11.8042C12.5655 11.8042 12.6306 11.8172 12.6914 11.8424C12.7521 11.8676 12.8073 11.9045 12.8537 11.9511L13.0237 12.1211C13.6906 12.7575 14.5769 13.1125 15.4987 13.1125C16.4205 13.1125 17.3069 12.7575 17.9737 12.1211L21.5597 8.53608L22.2917 9.26907C22.4315 9.40923 22.6098 9.50474 22.8039 9.5435C22.998 9.58227 23.1993 9.56254 23.3822 9.48683C23.5651 9.41112 23.7214 9.28283 23.8313 9.1182C23.9413 8.95358 23.9999 8.76003 23.9997 8.56208V5.47607C23.9997 5.07825 23.8417 4.69672 23.5604 4.41541C23.2791 4.13411 22.8975 3.97607 22.4997 3.97607Z" fill="#FBFFE4"/>
</g>
<defs>
<clipPath id="clip0_144_1066">
<rect width="24" height="24" fill="white"/>
</clipPath>
</defs>
</svg>
