<svg width="34" height="34" viewBox="0 0 34 34" fill="none" xmlns="http://www.w3.org/2000/svg">
<g clip-path="url(#clip0_293_670)">
<path d="M18.4169 2.90558V1.41667C18.4169 1.04094 18.2676 0.680609 18.0019 0.414932C17.7363 0.149256 17.3759 0 17.0002 0C16.6245 0 16.2641 0.149256 15.9985 0.414932C15.7328 0.680609 15.5835 1.04094 15.5835 1.41667V2.90558C12.7315 3.16128 10.0053 4.19929 7.70543 5.90526C5.40556 7.61123 3.62124 9.91895 2.54904 12.5742C1.47685 15.2294 1.1584 18.129 1.62879 20.9536C2.09918 23.7783 3.34014 26.4182 5.21495 28.5827C4.47455 28.9489 3.85584 29.5215 3.43333 30.2313C3.01081 30.9411 2.80252 31.7579 2.83353 32.5833C2.83353 32.9591 2.98279 33.3194 3.24846 33.5851C3.51414 33.8507 3.87447 34 4.2502 34C4.62592 34 4.98626 33.8507 5.25193 33.5851C5.51761 33.3194 5.66686 32.9591 5.66686 32.5833C5.65509 32.1467 5.81185 31.7222 6.10464 31.3981C6.39743 31.0739 6.80376 30.8749 7.23936 30.8423C7.33681 30.8237 7.43185 30.7942 7.5227 30.7544C10.2364 32.8592 13.573 34.0015 17.0073 34.0015C20.4415 34.0015 23.7782 32.8592 26.4919 30.7544C26.5748 30.7926 26.6611 30.823 26.7497 30.8451C27.1868 30.8749 27.5956 31.0723 27.8907 31.3962C28.1857 31.72 28.3444 32.1453 28.3335 32.5833C28.3335 32.9591 28.4828 33.3194 28.7485 33.5851C29.0141 33.8507 29.3745 34 29.7502 34C30.1259 34 30.4863 33.8507 30.7519 33.5851C31.0176 33.3194 31.1669 32.9591 31.1669 32.5833C31.1979 31.7579 30.9896 30.9411 30.5671 30.2313C30.1446 29.5215 29.5258 28.9489 28.7854 28.5827C30.6603 26.4182 31.9012 23.7783 32.3716 20.9536C32.842 18.129 32.5235 15.2294 31.4513 12.5742C30.3792 9.91895 28.5948 7.61123 26.295 5.90526C23.9951 4.19929 21.2689 3.16128 18.4169 2.90558ZM4.2502 18.4167C4.2502 15.895 4.99797 13.4299 6.39896 11.3331C7.79995 9.23642 9.79123 7.60222 12.121 6.6372C14.4507 5.67219 17.0143 5.41969 19.4876 5.91166C21.9609 6.40362 24.2327 7.61794 26.0158 9.40106C27.7989 11.1842 29.0132 13.456 29.5052 15.9293C29.9972 18.4025 29.7447 20.9661 28.7797 23.2959C27.8146 25.6256 26.1804 27.6169 24.0837 29.0179C21.987 30.4189 19.5219 31.1667 17.0002 31.1667C13.62 31.1625 10.3793 29.8179 7.98914 27.4277C5.59895 25.0375 4.25432 21.7969 4.2502 18.4167Z" fill="#FBFFE4"/>
<path d="M27.2209 -4.09749e-05C26.8451 -4.09749e-05 26.4848 0.149215 26.2191 0.414891C25.9535 0.680568 25.8042 1.0409 25.8042 1.41663C25.8042 1.79235 25.9535 2.15268 26.2191 2.41836C26.4848 2.68404 26.8451 2.83329 27.2209 2.83329C27.7149 2.79574 28.2114 2.85862 28.6804 3.01814C29.1494 3.17766 29.5813 3.43052 29.95 3.76147C30.3187 4.09241 30.6165 4.4946 30.8255 4.94377C31.0346 5.39293 31.1505 5.87978 31.1663 6.37496C31.1663 6.75068 31.3155 7.11102 31.5812 7.37669C31.8469 7.64237 32.2072 7.79163 32.583 7.79163C32.9587 7.79163 33.319 7.64237 33.5847 7.37669C33.8504 7.11102 33.9996 6.75068 33.9996 6.37496C33.9815 5.50866 33.7908 4.65468 33.4386 3.86297C33.0865 3.07126 32.58 2.35773 31.9488 1.76411C31.3176 1.1705 30.5743 0.708726 29.7625 0.405811C28.9507 0.102896 28.0866 -0.0350785 27.2209 -4.09749e-05Z" fill="#FBFFE4"/>
<path d="M2.83333 6.37496C2.84912 5.87978 2.96503 5.39293 3.17407 4.94377C3.3831 4.4946 3.68094 4.09241 4.04962 3.76147C4.41829 3.43052 4.85017 3.17766 5.31921 3.01814C5.78826 2.85862 6.28475 2.79574 6.77875 2.83329C7.15447 2.83329 7.51481 2.68404 7.78048 2.41836C8.04616 2.15268 8.19542 1.79235 8.19542 1.41663C8.19542 1.0409 8.04616 0.680568 7.78048 0.414891C7.51481 0.149215 7.15447 -4.09749e-05 6.77875 -4.09749e-05C5.91297 -0.0350785 5.0489 0.102896 4.23708 0.405811C3.42527 0.708726 2.68201 1.1705 2.0508 1.76411C1.4196 2.35773 0.913108 3.07126 0.560973 3.86297C0.208838 4.65468 0.018128 5.50866 0 6.37496C0 6.75068 0.149256 7.11102 0.414932 7.37669C0.680609 7.64237 1.04094 7.79163 1.41667 7.79163C1.79239 7.79163 2.15272 7.64237 2.4184 7.37669C2.68408 7.11102 2.83333 6.75068 2.83333 6.37496Z" fill="#FBFFE4"/>
<path d="M18.4168 16.4135V9.91667C18.4168 9.54094 18.2676 9.18061 18.0019 8.91493C17.7362 8.64926 17.3759 8.5 17.0002 8.5C16.6244 8.5 16.2641 8.64926 15.9984 8.91493C15.7328 9.18061 15.5835 9.54094 15.5835 9.91667V17C15.5836 17.3757 15.7329 17.736 15.9986 18.0016L20.2486 22.2516C20.5158 22.5096 20.8736 22.6524 21.2451 22.6492C21.6165 22.646 21.9718 22.497 22.2345 22.2343C22.4972 21.9717 22.6461 21.6163 22.6494 21.2449C22.6526 20.8735 22.5098 20.5156 22.2517 20.2484L18.4168 16.4135Z" fill="#FBFFE4"/>
</g>
<defs>
<clipPath id="clip0_293_670">
<rect width="34" height="34" fill="white"/>
</clipPath>
</defs>
</svg>
