<svg width="34" height="34" viewBox="0 0 34 34" fill="none" xmlns="http://www.w3.org/2000/svg">
<g clip-path="url(#clip0_293_702)">
<path d="M25.4715 13.2828L16.9998 11.5885V4.40172C17.0132 3.37717 16.6657 2.38057 16.0182 1.58646C15.3706 0.792352 14.4644 0.251357 13.4581 0.058223C12.8486 -0.0448065 12.2239 -0.0136268 11.6277 0.149587C11.0314 0.312801 10.478 0.604121 10.0059 1.00323C9.53383 1.40233 9.1545 1.89962 8.89438 2.4604C8.63425 3.02118 8.49959 3.63196 8.49979 4.25014V13.6866L4.54871 18.8418C3.38986 20.1981 2.78295 21.9403 2.84828 23.723C2.91362 25.5057 3.64644 27.1988 4.90146 28.4666L8.30146 31.9021C9.63559 33.2407 11.4464 33.9953 13.3363 34.0001H24.0831C25.9611 33.9979 27.7614 33.2509 29.0893 31.923C30.4172 30.5951 31.1642 28.7947 31.1665 26.9168V20.2287C31.163 18.592 30.5943 17.0067 29.5565 15.7411C28.5188 14.4754 27.0757 13.607 25.4715 13.2828ZM28.3331 26.9168C28.3331 28.044 27.8854 29.125 27.0883 29.922C26.2913 30.719 25.2103 31.1668 24.0831 31.1668H13.3363C12.2011 31.1635 11.1136 30.7095 10.3131 29.9046L6.91312 26.4649C6.15338 25.6919 5.71419 24.6601 5.6837 23.5767C5.65322 22.4933 6.03371 21.4385 6.74879 20.624L8.49979 18.3389V24.0835C8.49979 24.4592 8.64904 24.8195 8.91472 25.0852C9.1804 25.3509 9.54073 25.5001 9.91646 25.5001C10.2922 25.5001 10.6525 25.3509 10.9182 25.0852C11.1839 24.8195 11.3331 24.4592 11.3331 24.0835V4.25014C11.333 4.04291 11.3783 3.83818 11.4659 3.65039C11.5535 3.46259 11.6813 3.2963 11.8401 3.16324C11.999 3.03018 12.1851 2.93359 12.3854 2.88028C12.5856 2.82698 12.7951 2.81825 12.9991 2.85472C13.3421 2.93867 13.6456 3.13846 13.8583 3.42033C14.071 3.7022 14.1798 4.04886 14.1665 4.40172V12.7501C14.1664 13.0767 14.2792 13.3933 14.4857 13.6463C14.6922 13.8993 14.9798 14.0732 15.2998 14.1385L24.9105 16.0609C25.8738 16.2548 26.7407 16.7755 27.3644 17.535C27.988 18.2945 28.3302 19.246 28.3331 20.2287V26.9168Z" fill="#FBFFE4"/>
</g>
<defs>
<clipPath id="clip0_293_702">
<rect width="34" height="34" fill="white"/>
</clipPath>
</defs>
</svg>
