<svg width="24" height="24" viewBox="0 0 24 24" fill="none" xmlns="http://www.w3.org/2000/svg">
<path d="M22.9745 8.69514L15.8885 1.60916C13.7391 -0.534759 10.26 -0.534759 8.11053 1.60916L1.02454 8.69514C0.36604 9.35013 -0.00305299 10.2413 -0.000474865 11.1701V21.5481C0.00172826 22.9027 1.09991 24 2.45455 24.0011H21.5445C22.8991 24 23.9973 22.9027 23.9995 21.5481V11.1701C24.0021 10.2413 23.633 9.35013 22.9745 8.69514ZM20.9995 21.0011H15.9995V17.8191C15.9995 15.7105 14.2901 14.0011 12.1815 14.0011H11.8175C9.70891 14.0011 7.99953 15.7105 7.99953 17.8191V21.0011H2.99952V11.1701C2.99985 11.0375 3.05225 10.9104 3.14553 10.8161L10.2315 3.73015C11.2077 2.7537 12.7906 2.75352 13.7671 3.72969C13.7672 3.72983 13.7674 3.73001 13.7675 3.73015L20.8535 10.8161C20.9467 10.9104 20.9992 11.0375 20.9995 11.1701V21.0011H20.9995Z" fill="#FBFFE4"/>
</svg>
