<svg width="86" height="86" viewBox="0 0 86 86" fill="none" xmlns="http://www.w3.org/2000/svg">
<g clip-path="url(#clip0_369_1310)">
<path d="M43 86C39.1986 86 35.5528 84.4899 32.8648 81.8019C30.1768 79.1138 28.6667 75.4681 28.6667 71.6667V57.3333H14.3333C10.5319 57.3333 6.88616 55.8232 4.19814 53.1352C1.51011 50.4472 0 46.8014 0 43C0 39.1986 1.51011 35.5528 4.19814 32.8648C6.88616 30.1768 10.5319 28.6667 14.3333 28.6667H28.6667V14.3333C28.6667 10.5319 30.1768 6.88616 32.8648 4.19814C35.5528 1.51011 39.1986 0 43 0C46.8014 0 50.4472 1.51011 53.1352 4.19814C55.8232 6.88616 57.3333 10.5319 57.3333 14.3333V28.6667H71.6667C75.4681 28.6667 79.1138 30.1768 81.8019 32.8648C84.4899 35.5528 86 39.1986 86 43C86 46.8014 84.4899 50.4472 81.8019 53.1352C79.1138 55.8232 75.4681 57.3333 71.6667 57.3333H57.3333V71.6667C57.3333 75.4681 55.8232 79.1138 53.1352 81.8019C50.4472 84.4899 46.8014 86 43 86ZM14.3333 35.8333C12.4326 35.8333 10.6097 36.5884 9.26573 37.9324C7.92172 39.2764 7.16667 41.0993 7.16667 43C7.16667 44.9007 7.92172 46.7236 9.26573 48.0676C10.6097 49.4116 12.4326 50.1667 14.3333 50.1667H32.25C33.2004 50.1667 34.1118 50.5442 34.7838 51.2162C35.4558 51.8882 35.8333 52.7996 35.8333 53.75V71.6667C35.8333 73.5674 36.5884 75.3903 37.9324 76.7343C39.2764 78.0783 41.0993 78.8333 43 78.8333C44.9007 78.8333 46.7236 78.0783 48.0676 76.7343C49.4116 75.3903 50.1667 73.5674 50.1667 71.6667V53.75C50.1667 52.7996 50.5442 51.8882 51.2162 51.2162C51.8882 50.5442 52.7996 50.1667 53.75 50.1667H71.6667C73.5674 50.1667 75.3903 49.4116 76.7343 48.0676C78.0783 46.7236 78.8333 44.9007 78.8333 43C78.8333 41.0993 78.0783 39.2764 76.7343 37.9324C75.3903 36.5884 73.5674 35.8333 71.6667 35.8333H53.75C52.7996 35.8333 51.8882 35.4558 51.2162 34.7838C50.5442 34.1118 50.1667 33.2004 50.1667 32.25V14.3333C50.1667 12.4326 49.4116 10.6097 48.0676 9.26573C46.7236 7.92172 44.9007 7.16667 43 7.16667C41.0993 7.16667 39.2764 7.92172 37.9324 9.26573C36.5884 10.6097 35.8333 12.4326 35.8333 14.3333V32.25C35.8333 33.2004 35.4558 34.1118 34.7838 34.7838C34.1118 35.4558 33.2004 35.8333 32.25 35.8333H14.3333Z" fill="white"/>
</g>
<defs>
<clipPath id="clip0_369_1310">
<rect width="86" height="86" fill="white"/>
</clipPath>
</defs>
</svg>
