<svg width="24" height="25" viewBox="0 0 24 25" fill="none" xmlns="http://www.w3.org/2000/svg">
<g clip-path="url(#clip0_165_2566)">
<path d="M12 8.50061C11.2089 8.50061 10.4355 8.73521 9.77772 9.17473C9.11993 9.61426 8.60723 10.239 8.30448 10.9699C8.00173 11.7008 7.92252 12.505 8.07686 13.281C8.2312 14.0569 8.61216 14.7696 9.17157 15.329C9.73098 15.8884 10.4437 16.2694 11.2196 16.4238C11.9956 16.5781 12.7998 16.4989 13.5307 16.1961C14.2616 15.8934 14.8864 15.3807 15.3259 14.7229C15.7654 14.0651 16 13.2917 16 12.5006C16 11.4397 15.5786 10.4223 14.8284 9.67218C14.0783 8.92204 13.0609 8.50061 12 8.50061ZM12 14.5006C11.6044 14.5006 11.2178 14.3833 10.8889 14.1635C10.56 13.9438 10.3036 13.6314 10.1522 13.266C10.0009 12.9005 9.96126 12.4984 10.0384 12.1104C10.1156 11.7225 10.3061 11.3661 10.5858 11.0864C10.8655 10.8067 11.2219 10.6162 11.6098 10.539C11.9978 10.4619 12.3999 10.5015 12.7654 10.6529C13.1308 10.8042 13.4432 11.0606 13.6629 11.3895C13.8827 11.7184 14 12.105 14 12.5006C14 13.031 13.7893 13.5398 13.4142 13.9148C13.0391 14.2899 12.5304 14.5006 12 14.5006Z" fill="#3D8D7A"/>
<path d="M21.2943 14.4L20.8503 14.144C21.0502 13.0564 21.0502 11.9416 20.8503 10.854L21.2943 10.598C21.6357 10.401 21.935 10.1387 22.1751 9.82606C22.4151 9.51341 22.5913 9.15654 22.6934 8.77582C22.7956 8.3951 22.8217 7.99799 22.7704 7.60716C22.7191 7.21633 22.5913 6.83944 22.3943 6.498C22.1973 6.15656 21.935 5.85727 21.6223 5.6172C21.3097 5.37714 20.9528 5.20101 20.5721 5.09886C20.1914 4.99672 19.7943 4.97056 19.4034 5.02189C19.0126 5.07321 18.6357 5.20102 18.2943 5.398L17.8493 5.655C17.0088 4.93692 16.043 4.38025 15.0003 4.013V3.5C15.0003 2.70435 14.6842 1.94129 14.1216 1.37868C13.559 0.81607 12.7959 0.5 12.0003 0.5C11.2046 0.5 10.4416 0.81607 9.87897 1.37868C9.31636 1.94129 9.00029 2.70435 9.00029 3.5V4.013C7.95767 4.38157 6.99214 4.9396 6.15229 5.659L5.70529 5.4C5.01572 5.00218 4.19637 4.89457 3.42747 5.10086C2.65857 5.30715 2.00311 5.81044 1.60529 6.5C1.20746 7.18956 1.09986 8.00892 1.30615 8.77782C1.51244 9.54672 2.01572 10.2022 2.70529 10.6L3.14929 10.856C2.9494 11.9436 2.9494 13.0584 3.14929 14.146L2.70529 14.402C2.01572 14.7998 1.51244 15.4553 1.30615 16.2242C1.09986 16.9931 1.20746 17.8124 1.60529 18.502C2.00311 19.1916 2.65857 19.6948 3.42747 19.9011C4.19637 20.1074 5.01572 19.9998 5.70529 19.602L6.15029 19.345C6.99105 20.0632 7.95727 20.6199 9.00029 20.987V21.5C9.00029 22.2956 9.31636 23.0587 9.87897 23.6213C10.4416 24.1839 11.2046 24.5 12.0003 24.5C12.7959 24.5 13.559 24.1839 14.1216 23.6213C14.6842 23.0587 15.0003 22.2956 15.0003 21.5V20.987C16.0429 20.6184 17.0084 20.0604 17.8483 19.341L18.2953 19.599C18.9849 19.9968 19.8042 20.1044 20.5731 19.8981C21.342 19.6918 21.9975 19.1886 22.3953 18.499C22.7931 17.8094 22.9007 16.9901 22.6944 16.2212C22.4881 15.4523 21.9849 14.7968 21.2953 14.399L21.2943 14.4ZM18.7463 10.624C19.0849 11.8511 19.0849 13.1469 18.7463 14.374C18.6872 14.5876 18.7006 14.8147 18.7846 15.0198C18.8686 15.2249 19.0183 15.3963 19.2103 15.507L20.2943 16.133C20.5241 16.2656 20.6918 16.4841 20.7605 16.7403C20.8293 16.9966 20.7934 17.2697 20.6608 17.4995C20.5282 17.7293 20.3097 17.897 20.0534 17.9658C19.7972 18.0345 19.5241 17.9986 19.2943 17.866L18.2083 17.238C18.0162 17.1267 17.7925 17.0826 17.5725 17.1124C17.3526 17.1423 17.1488 17.2445 16.9933 17.403C16.1032 18.3117 14.9819 18.96 13.7503 19.278C13.5353 19.3333 13.3448 19.4585 13.2089 19.6339C13.0729 19.8094 12.9992 20.025 12.9993 20.247V21.5C12.9993 21.7652 12.8939 22.0196 12.7064 22.2071C12.5189 22.3946 12.2645 22.5 11.9993 22.5C11.7341 22.5 11.4797 22.3946 11.2922 22.2071C11.1046 22.0196 10.9993 21.7652 10.9993 21.5V20.248C10.9994 20.026 10.9257 19.8104 10.7897 19.6349C10.6537 19.4595 10.4633 19.3343 10.2483 19.279C9.01663 18.9597 7.89562 18.31 7.00629 17.4C6.85081 17.2415 6.64702 17.1393 6.42704 17.1094C6.20706 17.0796 5.98339 17.1237 5.79129 17.235L4.70729 17.862C4.59352 17.9287 4.46768 17.9722 4.33701 17.9901C4.20635 18.008 4.07344 17.9998 3.94594 17.9661C3.81844 17.9324 3.69887 17.8738 3.59411 17.7937C3.48935 17.7136 3.40146 17.6135 3.33552 17.4993C3.26958 17.3851 3.22688 17.259 3.20988 17.1282C3.19289 16.9974 3.20192 16.8646 3.23648 16.7373C3.27103 16.61 3.33042 16.4909 3.41122 16.3866C3.49202 16.2824 3.59264 16.1952 3.70729 16.13L4.79129 15.504C4.98324 15.3933 5.13296 15.2219 5.21695 15.0168C5.30093 14.8117 5.31442 14.5846 5.25529 14.371C4.91664 13.1439 4.91664 11.8481 5.25529 10.621C5.31335 10.4079 5.29922 10.1815 5.2151 9.97729C5.13098 9.77305 4.9816 9.60241 4.79029 9.492L3.70629 8.866C3.47648 8.73339 3.30876 8.51492 3.24003 8.25865C3.17129 8.00239 3.20718 7.72931 3.33979 7.4995C3.4724 7.26969 3.69086 7.10197 3.94713 7.03324C4.2034 6.96451 4.47648 7.00039 4.70629 7.133L5.79229 7.761C5.98387 7.87251 6.20707 7.91721 6.42681 7.88807C6.64656 7.85893 6.8504 7.75759 7.00629 7.6C7.89637 6.69134 9.01771 6.04302 10.2493 5.725C10.4649 5.66956 10.6559 5.54375 10.7919 5.3675C10.928 5.19125 11.0013 4.97464 11.0003 4.752V3.5C11.0003 3.23478 11.1056 2.98043 11.2932 2.79289C11.4807 2.60536 11.7351 2.5 12.0003 2.5C12.2655 2.5 12.5199 2.60536 12.7074 2.79289C12.8949 2.98043 13.0003 3.23478 13.0003 3.5V4.752C13.0002 4.97396 13.0739 5.18964 13.2099 5.36508C13.3458 5.54052 13.5363 5.66573 13.7513 5.721C14.9833 6.04015 16.1047 6.68988 16.9943 7.6C17.1498 7.75847 17.3535 7.86069 17.5735 7.89057C17.7935 7.92044 18.0172 7.87626 18.2093 7.765L19.2933 7.138C19.4071 7.0713 19.5329 7.02777 19.6636 7.0099C19.7942 6.99204 19.9271 7.00019 20.0546 7.0339C20.1821 7.06761 20.3017 7.1262 20.4065 7.20631C20.5112 7.28642 20.5991 7.38646 20.6651 7.50067C20.731 7.61488 20.7737 7.74101 20.7907 7.87179C20.8077 8.00257 20.7987 8.13542 20.7641 8.26269C20.7295 8.38997 20.6702 8.50915 20.5894 8.61337C20.5086 8.7176 20.4079 8.80482 20.2933 8.87L19.2093 9.496C19.0183 9.60671 18.8694 9.77748 18.7856 9.98169C18.7019 10.1859 18.688 10.4121 18.7463 10.625V10.624Z" fill="#3D8D7A"/>
</g>
<defs>
<clipPath id="clip0_165_2566">
<rect width="24" height="24" fill="white" transform="translate(0 0.5)"/>
</clipPath>
</defs>
</svg>
