<svg width="46" height="45" viewBox="0 0 46 45" fill="none" xmlns="http://www.w3.org/2000/svg">
<path d="M17.375 33.5251V12.5813C17.3729 12.2089 17.4817 11.8443 17.6875 11.5339C17.8934 11.2236 18.187 10.9816 18.531 10.8388C18.875 10.696 19.2537 10.6588 19.6188 10.7321C19.984 10.8053 20.319 10.9857 20.5813 11.2501L31.0438 21.7313C31.393 22.0826 31.589 22.5579 31.589 23.0532C31.589 23.5486 31.393 24.0238 31.0438 24.3751L20.5813 34.8563C20.319 35.1208 19.984 35.3011 19.6188 35.3744C19.2537 35.4476 18.875 35.4105 18.531 35.2677C18.187 35.1248 17.8934 34.8828 17.6875 34.5725C17.4817 34.2621 17.3729 33.8975 17.375 33.5251Z" fill="#3D8D7A"/>
</svg>
