<svg width="24" height="23" viewBox="0 0 24 23" fill="none" xmlns="http://www.w3.org/2000/svg">
<path d="M6.40987 14.5001H17.5899C17.7876 14.4993 17.9807 14.4398 18.1447 14.3292C18.3087 14.2187 18.4362 14.062 18.5111 13.8789C18.5861 13.6959 18.605 13.4948 18.5656 13.301C18.5263 13.1071 18.4303 12.9294 18.2899 12.7901L12.7099 7.2101C12.6169 7.11638 12.5063 7.04198 12.3844 6.99121C12.2626 6.94045 12.1319 6.91431 11.9999 6.91431C11.8679 6.91431 11.7372 6.94045 11.6153 6.99121C11.4934 7.04198 11.3828 7.11638 11.2899 7.2101L5.70987 12.7901C5.56945 12.9294 5.47348 13.1071 5.43409 13.301C5.39471 13.4948 5.41368 13.6959 5.4886 13.8789C5.56353 14.062 5.69104 14.2187 5.85503 14.3292C6.01901 14.4398 6.2121 14.4993 6.40987 14.5001Z" fill="#374957"/>
</svg>
