<svg width="34" height="34" viewBox="0 0 34 34" fill="none" xmlns="http://www.w3.org/2000/svg">
<g clip-path="url(#clip0_293_731)">
<path d="M17 0C13.6377 0 10.3509 0.997033 7.55531 2.86502C4.75968 4.733 2.58075 7.38804 1.29406 10.4944C0.00736586 13.6007 -0.329291 17.0189 0.326658 20.3165C0.982607 23.6142 2.6017 26.6433 4.97919 29.0208C7.35668 31.3983 10.3858 33.0174 13.6835 33.6734C16.9811 34.3293 20.3993 33.9926 23.5056 32.706C26.612 31.4193 29.267 29.2403 31.135 26.4447C33.003 23.6491 34 20.3623 34 17C33.9951 12.4928 32.2025 8.17163 29.0154 4.98457C25.8284 1.79751 21.5072 0.00487487 17 0V0ZM17 31.1667C14.1981 31.1667 11.4591 30.3358 9.12943 28.7792C6.79973 27.2225 4.98396 25.01 3.91171 22.4214C2.83947 19.8327 2.55893 16.9843 3.10555 14.2362C3.65217 11.4882 5.00142 8.9639 6.98266 6.98265C8.96391 5.00141 11.4882 3.65217 14.2362 3.10554C16.9843 2.55892 19.8327 2.83947 22.4214 3.91171C25.01 4.98395 27.2225 6.79973 28.7792 9.12942C30.3358 11.4591 31.1667 14.1981 31.1667 17C31.1625 20.756 29.6687 24.3569 27.0128 27.0128C24.3569 29.6687 20.756 31.1625 17 31.1667Z" fill="#FBFFE4"/>
<path d="M17.0002 7.0835C16.6244 7.0835 16.2641 7.23275 15.9984 7.49843C15.7328 7.7641 15.5835 8.12444 15.5835 8.50016V19.8335C15.5835 20.2092 15.7328 20.5696 15.9984 20.8352C16.2641 21.1009 16.6244 21.2502 17.0002 21.2502C17.3759 21.2502 17.7362 21.1009 18.0019 20.8352C18.2676 20.5696 18.4168 20.2092 18.4168 19.8335V8.50016C18.4168 8.12444 18.2676 7.7641 18.0019 7.49843C17.7362 7.23275 17.3759 7.0835 17.0002 7.0835Z" fill="#FBFFE4"/>
<path d="M18.4168 25.5002C18.4168 24.7178 17.7826 24.0835 17.0002 24.0835C16.2178 24.0835 15.5835 24.7178 15.5835 25.5002C15.5835 26.2826 16.2178 26.9168 17.0002 26.9168C17.7826 26.9168 18.4168 26.2826 18.4168 25.5002Z" fill="#FBFFE4"/>
</g>
<defs>
<clipPath id="clip0_293_731">
<rect width="34" height="34" fill="white"/>
</clipPath>
</defs>
</svg>
